<?xml version="1.0" standalone="no"?>
<!DOCTYPE svg PUBLIC "-//W3C//DTD SVG 20010904//EN"
 "http://www.w3.org/TR/2001/REC-SVG-20010904/DTD/svg10.dtd">
<svg version="1.0" xmlns="http://www.w3.org/2000/svg"
 width="548.000000pt" height="548.000000pt" viewBox="0 0 548.000000 548.000000"
 preserveAspectRatio="xMidYMid meet">
<metadata>
Created by potrace 1.14, written by Peter Selinger 2001-2017
</metadata>
<g transform="translate(0.000000,548.000000) scale(0.100000,-0.100000)"
fill="#000000" stroke="none">
<path d="M848 5415 c-2 -2 -29 -5 -60 -9 -176 -18 -339 -94 -466 -218 -51 -50
-142 -160 -142 -172 0 -3 -13 -27 -29 -53 -39 -64 -96 -205 -124 -312 l-23
-86 1 -1880 c1 -1997 -1 -1893 41 -2015 3 -8 6 -17 6 -20 1 -3 14 -35 30 -72
33 -78 77 -155 121 -213 33 -44 147 -155 159 -155 3 0 13 -6 20 -13 37 -35
186 -97 297 -123 47 -11 314 -13 371 -3 128 23 199 44 269 81 68 36 249 134
366 198 28 15 109 59 180 98 213 114 249 134 280 152 17 10 75 41 130 70 55
29 105 56 110 60 6 4 42 24 80 44 39 20 77 41 85 46 8 5 65 36 125 68 232 125
282 152 400 217 59 33 1029 562 1105 603 63 34 123 67 205 112 44 25 152 85
400 220 33 18 106 60 163 92 57 32 105 58 107 58 2 0 59 32 127 70 208 119
301 252 292 419 -4 86 -4 87 -42 163 -53 109 -117 167 -277 254 -11 5 -150 86
-310 179 -159 92 -304 176 -322 186 -17 10 -49 29 -70 42 -21 13 -45 27 -53
31 -8 4 -24 12 -35 19 -11 7 -67 39 -125 72 -58 33 -106 63 -108 67 -2 4 -8 8
-13 8 -4 0 -81 43 -170 95 -89 52 -163 95 -166 95 -2 0 -20 11 -41 24 -36 22
-391 229 -462 269 -19 10 -71 40 -115 66 -74 44 -363 212 -445 259 -19 11 -97
56 -174 101 -76 44 -142 81 -147 81 -5 0 -9 4 -9 9 0 5 -8 11 -17 14 -19 6
-55 27 -181 103 -40 24 -74 44 -76 44 -3 0 -170 96 -226 130 -8 5 -62 36 -120
70 -58 33 -112 65 -120 70 -15 10 -96 56 -160 93 -19 10 -77 44 -129 75 -108
63 -167 84 -311 108 -29 4 -198 12 -202 9z"/>
</g>
</svg>
